<svg width="157" height="95" viewBox="0 0 157 95" fill="none" xmlns="http://www.w3.org/2000/svg">
<g clip-path="url(#clip0_1739_4)">
<path d="M83.083 63.126L103.806 71.4836L129.458 7.33799L111.941 0.273929C110.171 -0.440448 108.159 0.422253 107.447 2.20113L83.082 63.127L83.083 63.126Z" fill="#F4A640"/>
<path d="M80.6451 60.7461L120.324 67.8081L130.212 11.7823L90.5325 4.72027L80.6451 60.7461Z" fill="#ADCFD8"/>
<path d="M100.488 12.6384L118.207 15.792L118.278 15.3926L100.559 12.239L100.488 12.6384Z" fill="#55769F"/>
<path d="M96.9418 10.9633L122.105 15.4419L122.176 15.0425L97.0123 10.5639L96.9418 10.9633Z" fill="#55769F"/>
<path d="M93.3413 15.6928L123.871 21.1265L123.942 20.7271L93.4118 15.2934L93.3413 15.6928Z" fill="#55769F"/>
<path d="M93.0015 17.6152L123.531 23.0488L123.602 22.6494L93.072 17.2158L93.0015 17.6152Z" fill="#55769F"/>
<path d="M92.3218 21.457L122.852 26.8906L122.922 26.4912L92.3923 21.0576L92.3218 21.457Z" fill="#55769F"/>
<path d="M91.9819 23.3789L122.512 28.8125L122.582 28.4131L92.0524 22.9795L91.9819 23.3789Z" fill="#55769F"/>
<path d="M91.646 25.3003L122.176 30.7339L122.246 30.3345L91.7165 24.9009L91.646 25.3003Z" fill="#55769F"/>
<path d="M90.1538 33.7505L120.684 39.1841L120.754 38.7847L90.2243 33.3511L90.1538 33.7505Z" fill="#55769F"/>
<path d="M89.7983 35.7436L120.328 41.1772L120.399 40.7779L89.8688 35.3442L89.7983 35.7436Z" fill="#55769F"/>
<path d="M89.4468 37.7358L119.977 43.1694L120.047 42.77L89.5173 37.3364L89.4468 37.7358Z" fill="#55769F"/>
<path d="M89.0952 39.728L119.625 45.1616L119.695 44.7622L89.1657 39.3286L89.0952 39.728Z" fill="#55769F"/>
<path d="M88.7437 41.7202L119.273 47.1538L119.344 46.7544L88.8141 41.3208L88.7437 41.7202Z" fill="#55769F"/>
<path d="M88.3921 43.7133L118.922 49.147L118.992 48.7476L88.4626 43.3139L88.3921 43.7133Z" fill="#55769F"/>
<path d="M88.0405 45.7055L118.57 51.1392L118.641 50.7398L88.111 45.3061L88.0405 45.7055Z" fill="#55769F"/>
<path d="M81.8334 58.35L120.805 68.6465L135.221 13.6201L96.2493 3.32365L81.8334 58.35Z" fill="#DAEEF7"/>
<path d="M105.527 12.0339L122.93 16.6318L123.032 16.2396L105.63 11.6416L105.527 12.0339Z" fill="#55769F"/>
<path d="M102.128 10.0725L126.844 16.6025L126.947 16.2103L102.231 9.68022L102.128 10.0725Z" fill="#55769F"/>
<path d="M98.1555 14.4913L128.141 22.4136L128.243 22.0213L98.2582 14.099L98.1555 14.4913Z" fill="#55769F"/>
<path d="M97.6594 16.379L127.645 24.3013L127.747 23.909L97.7621 15.9867L97.6594 16.379Z" fill="#55769F"/>
<path d="M96.6672 20.1529L126.652 28.0752L126.755 27.6829L96.77 19.7607L96.6672 20.1529Z" fill="#55769F"/>
<path d="M96.175 22.0387L126.16 29.9609L126.263 29.5687L96.2778 21.6464L96.175 22.0387Z" fill="#55769F"/>
<path d="M95.6789 23.9264L125.664 31.8486L125.767 31.4564L95.7817 23.5341L95.6789 23.9264Z" fill="#55769F"/>
<path d="M93.5031 32.2257L123.488 40.1479L123.591 39.7557L93.6059 31.8334L93.5031 32.2257Z" fill="#55769F"/>
<path d="M92.9914 34.1832L122.977 42.1055L123.079 41.7132L93.0942 33.7909L92.9914 34.1832Z" fill="#55769F"/>
<path d="M92.4797 36.1393L122.465 44.0615L122.568 43.6693L92.5825 35.747L92.4797 36.1393Z" fill="#55769F"/>
<path d="M91.968 38.0963L121.953 46.0186L122.056 45.6263L92.0707 37.704L91.968 38.0963Z" fill="#55769F"/>
<path d="M91.4523 40.0533L121.438 47.9756L121.54 47.5833L91.5551 39.661L91.4523 40.0533Z" fill="#55769F"/>
<path d="M90.9406 42.0103L120.926 49.9326L121.029 49.5403L91.0434 41.6181L90.9406 42.0103Z" fill="#55769F"/>
<path d="M90.4289 43.9669L120.414 51.8892L120.517 51.4969L90.5317 43.5746L90.4289 43.9669Z" fill="#55769F"/>
<path d="M90.9453 66.2975L132.665 83.1237L156.998 22.2765L121.941 0.558671C119.97 -0.662227 117.38 0.19442 116.518 2.35168L90.9453 66.2975Z" fill="#FEB546"/>
<path d="M141.159 59.9126L148.718 57.6888C150.048 52.1645 150.848 47.4595 150.848 47.4595C141.728 47.8288 134.708 50.6318 129.309 54.6164L128.192 63.6389L125.78 57.5899C113.035 69.7959 111.543 88.6391 111.543 88.6391C111.543 88.6391 137.196 78.5591 142.086 74.405C143.974 72.8007 145.71 68.4186 147.13 63.6419C144.578 62.2616 141.158 59.9116 141.158 59.9116L141.159 59.9126Z" fill="#FF5B7E"/>
<path d="M150.847 47.4595C150.847 47.4595 120.826 71.1086 111.543 88.6391C111.543 88.6391 137.196 78.5591 142.086 74.405C143.974 72.8007 145.71 68.4186 147.13 63.642C144.578 62.2616 141.158 59.9117 141.158 59.9117L148.717 57.6878C150.047 52.1635 150.847 47.4585 150.847 47.4585V47.4595Z" fill="#E03268"/>
<path d="M156.001 70.6696C150.673 69.1298 145.659 68.9008 141.036 69.5284C140.173 71.5192 139.091 73.8792 139.091 73.8792L137.88 70.0995C120.556 74.0144 109.512 89.4199 109.512 89.4199C121.13 92.9727 130.055 92.3814 136.827 89.9194C136.873 88.4685 136.91 86.3122 136.91 86.3122L138.97 89.0506C142.148 87.6179 144.794 85.7744 146.978 83.8089C145.896 82.3922 144.717 80.7566 144.717 80.7566L148.978 81.8484C154.126 76.3573 156.001 70.6706 156.001 70.6706V70.6696Z" fill="#FF5B7E"/>
<path d="M136.827 89.9207C136.873 88.4697 136.91 86.3135 136.91 86.3135L138.97 89.0519C142.148 87.6192 144.794 85.7757 146.978 83.8102C145.896 82.3935 144.717 80.7579 144.717 80.7579L148.978 81.8497C154.126 76.3586 156.001 70.6719 156.001 70.6719C135.435 73.8321 109.512 89.4222 109.512 89.4222C121.13 92.975 130.055 92.3837 136.827 89.9217V89.9207Z" fill="#E03268"/>
<path d="M24.9316 24.5238H22.0781C22.5453 24.2029 23.1291 24.0112 23.7641 24.0112H95.2369C98.9766 24.0112 102.008 26.7093 102.008 30.038V33.8662C102.008 37.1949 98.9766 39.894 95.2369 39.894L24.5629 39.8728L24.9306 24.5238H24.9316Z" fill="#E03268"/>
<path d="M96.0132 33.8672V30.039C96.0132 26.7103 92.9819 24.0122 89.2422 24.0122H90.7774C94.5171 24.0122 97.5484 26.7103 97.5484 30.039V33.8672C97.5484 37.1959 94.5171 39.895 90.7774 39.895H89.2633C92.9929 39.8849 96.0142 37.1908 96.0142 33.8672H96.0132Z" fill="#FEB546"/>
<path d="M79.2749 33.8672V30.039C79.2749 26.7103 76.2436 24.0122 72.5039 24.0122H74.0392C77.7788 24.0122 80.8102 26.7103 80.8102 30.039V33.8672C80.8102 37.1959 77.7788 39.895 74.0392 39.895H72.525C76.2546 39.8849 79.2759 37.1908 79.2759 33.8672H79.2749Z" fill="#FEB546"/>
<path d="M65.5089 24.0264C69.0848 24.0264 71.9835 26.6074 71.9835 29.7908V34.1174C71.9835 37.3009 69.0848 39.8819 65.5089 39.8819H21.0156V38.9143H21.1995L32.511 37.9608L34.7968 29.9765C34.7968 29.9765 30.3839 25.5641 30.0965 25.4501C29.8092 25.3361 21.1995 24.991 21.1995 24.991L21.0156 24.989V24.0264H65.5089Z" fill="#FF5B7E"/>
<path d="M23.9012 31.925C23.9012 27.2573 21.1914 24.9941 21.1914 24.9941H64.5976C67.8821 24.9941 70.5447 27.3643 70.5447 30.2884V33.6191C70.5447 36.5432 67.8821 38.9134 64.5976 38.9134H21.1914C21.1914 38.9134 23.9012 37.8035 23.9012 31.925Z" fill="#DAEEF7"/>
<g style="mix-blend-mode:multiply">
<path d="M70.5428 30.2884V33.6192C70.5428 34.0571 70.4815 34.4819 70.3689 34.8885C68.905 31.7 66.0988 28.6286 60.7575 27.6408C48.2866 25.3352 21.1875 24.9932 21.1875 24.9932H64.5936C67.8782 24.9932 70.5407 27.3633 70.5407 30.2874L70.5428 30.2884Z" fill="#DAEEF7"/>
</g>
<path d="M26.1082 56.2711H22.8789C23.4074 55.8695 24.0675 55.6294 24.7869 55.6294H105.68C109.912 55.6294 113.343 59.0075 113.343 63.1737V67.9655C113.343 72.1327 109.912 75.5099 105.68 75.5099L25.6912 75.4826L26.1072 56.2701L26.1082 56.2711Z" fill="#07085B"/>
<path d="M72.0338 55.6475C76.0809 55.6475 79.3624 58.8773 79.3624 62.8619V68.2772C79.3624 72.2618 76.0809 75.4916 72.0338 75.4916H21.6758V74.2798H21.8838L34.6863 73.0862L37.2735 63.0919C37.2735 63.0919 32.2789 57.5697 31.9534 57.4274C31.6278 57.2851 21.8838 56.8533 21.8838 56.8533L21.6758 56.8512V55.6465H72.0338V55.6475Z" fill="#55769F"/>
<path d="M24.9425 65.5348C24.9425 59.6917 21.876 56.8594 21.876 56.8594H71.0042C74.7218 56.8594 77.736 59.8269 77.736 63.4865V67.6557C77.736 71.3154 74.7218 74.2829 71.0042 74.2829H21.875C21.875 74.2829 24.9415 72.8935 24.9415 65.5358L24.9425 65.5348Z" fill="#DAEEF7"/>
<g style="mix-blend-mode:multiply">
<path d="M77.733 63.4856V67.6548C77.733 68.2027 77.6637 68.7344 77.5371 69.244C75.8802 65.2523 72.7042 61.409 66.6597 60.172C52.546 57.2862 21.875 56.8584 21.875 56.8584H71.0032C74.7208 56.8584 77.735 59.8259 77.735 63.4856H77.733Z" fill="#DAEEF7"/>
</g>
<path d="M116.012 40.363H119.242C118.713 40.0442 118.052 39.8545 117.333 39.8545H36.4084C32.1744 39.8545 28.7422 42.5344 28.7422 45.8409V49.6429C28.7422 52.9494 32.1744 55.6293 36.4084 55.6293L116.429 55.6081L116.013 40.363H116.012Z" fill="#02CCC0"/>
<path d="M70.0699 39.8687C66.0208 39.8687 62.7383 42.4315 62.7383 45.5938V49.8911C62.7383 53.0523 66.0208 55.6162 70.0699 55.6162H120.448V54.6546H120.24L107.433 53.7072L104.844 45.7774C104.844 45.7774 109.841 41.3953 110.166 41.2823C110.492 41.1693 120.24 40.8262 120.24 40.8262L120.448 40.8242V39.8687H70.0699Z" fill="#06BFAD"/>
<path d="M117.18 47.7135C117.18 43.0771 120.248 40.8301 120.248 40.8301H71.101C67.3814 40.8301 64.3672 43.1841 64.3672 46.089V49.3965C64.3672 52.3005 67.3824 54.6545 71.101 54.6545H120.248C120.248 54.6545 117.18 53.5516 117.18 47.7135Z" fill="#DAEEF7"/>
<g style="mix-blend-mode:multiply">
<path d="M64.3672 46.088V49.3956C64.3672 49.8304 64.4365 50.2522 64.5641 50.6568C66.222 47.4896 69.399 44.4393 75.4466 43.4586C89.5663 41.1691 120.249 40.8291 120.249 40.8291H71.102C67.3824 40.8291 64.3682 43.1831 64.3682 46.088H64.3672Z" fill="#DAEEF7"/>
</g>
<path opacity="0.5" d="M43.5671 49.6429V45.8409C43.5671 42.5344 46.9994 39.8545 51.2334 39.8545H43.549C39.315 39.8545 35.8828 42.5344 35.8828 45.8409V49.6429C35.8828 52.9494 39.315 55.6293 43.549 55.6293L51.1319 55.6273C46.9451 55.5849 43.5671 52.9221 43.5671 49.6429Z" fill="#55769F"/>
<path d="M121.343 76.1194H125.393C124.731 75.7632 123.902 75.5503 122.999 75.5503H21.545C16.2369 75.5503 11.9336 78.545 11.9336 82.239V86.4879C11.9336 90.1819 16.2369 93.1766 21.545 93.1766L121.864 93.1524L121.343 76.1194Z" fill="#FEB546"/>
<path d="M63.7461 75.5674C58.6701 75.5674 54.5547 78.4309 54.5547 81.9635V86.7643C54.5547 90.2969 58.6701 93.1604 63.7461 93.1604H126.904V92.0868H126.642L110.587 91.0284L107.341 82.1683C107.341 82.1683 113.605 77.2726 114.014 77.1465C114.422 77.0204 126.642 76.6369 126.642 76.6369L126.904 76.6349V75.5674H63.7461Z" fill="#F4A640"/>
<path d="M122.808 84.3328C122.808 79.1525 126.654 76.6411 126.654 76.6411H65.0396C60.3775 76.6411 56.5977 79.2716 56.5977 82.5166V86.2125C56.5977 89.4575 60.3775 92.088 65.0396 92.088H126.654C126.654 92.088 122.808 90.856 122.808 84.3338V84.3328Z" fill="#DAEEF7"/>
<g style="mix-blend-mode:multiply">
<path d="M56.5977 82.5166V86.2125C56.5977 86.6989 56.6841 87.1701 56.8438 87.6211C58.9216 84.0825 62.9045 80.6751 70.4863 79.5783C88.188 77.0195 126.654 76.6411 126.654 76.6411H65.0396C60.3775 76.6411 56.5977 79.2716 56.5977 82.5166Z" fill="#DAEEF7"/>
</g>
<path d="M147.919 95L0.787952 95C0.353901 95 0.00122601 94.6458 0.00122601 94.2099V93.8457C0.00122601 93.4098 0.353901 93.0556 0.787952 93.0556L147.919 93.0556C148.353 93.0556 148.707 93.4098 148.707 93.8467V94.2099C148.707 94.6458 148.354 95.001 147.919 95.001V95Z" fill="#C4DFE8"/>
<path d="M149.607 28.9958L121.202 12.6802L117.363 20.3173L146.428 35.7592L149.607 28.9958Z" fill="#F4A640"/>
</g>
<defs>
<clipPath id="clip0_1739_4">
<rect width="157" height="95" fill="white"/>
</clipPath>
</defs>
</svg>
