<svg width="460" height="466" viewBox="0 0 460 466" fill="none" xmlns="http://www.w3.org/2000/svg">
<g clip-path="url(#clip0_1770_2)">
<path d="M432.099 200.42C426.249 224.64 404.829 240.99 382.109 248.58C392.409 252.76 400.869 260.56 406.439 270.17C417.169 288.66 416.479 312.4 401.679 328.47C388.089 343.23 365.779 349.75 346.689 343.23C354.709 353.39 357.719 366.74 355.989 379.54C354.279 392.23 347.869 403.7 337.989 411.82C327.959 420.07 315.139 424.66 302.219 425.34C277.659 426.63 255.009 413.02 240.649 393.73C237.939 396.77 234.909 399.54 231.609 401.97C214.499 414.58 191.349 417.49 172.469 407.07C154.309 397.05 141.849 376.94 142.199 356.09C133.989 364.25 123.159 369.29 111.729 371.03C89.8993 374.35 67.3393 365.11 56.3693 345.51C46.2393 327.38 46.4493 303.68 58.1393 286.37C48.3893 289.29 37.7593 286.75 29.4893 280.92C21.3493 275.19 15.8993 266.61 14.3393 256.76C12.6393 246.05 15.3893 234.91 20.9093 225.67C32.4493 206.37 54.9693 197.74 76.6293 196.85C67.5293 191.99 60.3393 184.03 55.9093 174.72C47.2393 156.5 49.4793 134.33 64.2793 119.98C77.8693 106.8 99.0193 101.62 116.839 108.36C110.349 98.3798 107.609 86.2998 108.419 74.4498C109.189 63.2498 113.009 52.2698 119.739 43.2498C126.509 34.1798 136.179 27.7398 147.099 24.7898C168.329 19.0498 192.829 25.9598 206.729 43.2698C211.319 32.0098 219.789 22.6698 230.169 16.3898C249.349 4.78979 273.859 4.29979 292.259 17.7098C309.869 30.5498 319.929 53.5098 316.079 75.0898C326.269 67.9798 337.339 60.8998 349.779 58.8898C359.719 57.2798 369.809 59.7798 377.309 66.6198C383.889 72.6198 388.029 81.0498 389.839 89.6898C394.339 111.11 383.829 131.61 373.549 149.85C382.199 143.9 393.369 142.67 403.529 145.38C414.309 148.25 423.359 155.33 428.489 165.27C434.039 176.01 434.909 188.76 432.099 200.42Z" fill="#B1D3FE"/>
<path d="M310.381 435.17C301.601 420.46 296.271 406.7 293.531 393.96C278.491 324 341.501 284.5 341.501 284.5C341.501 284.5 360.771 312.47 360.451 348.59C360.211 375.65 348.971 407.29 310.371 435.17H310.381Z" fill="#0177FB"/>
<path d="M325.912 355.86L318.132 393.56L305.452 374.53L301.052 367.89C300.942 367.72 300.782 367.64 300.592 367.65C300.382 367.65 300.182 367.8 300.072 368.01C299.962 368.22 299.982 368.44 300.102 368.62L315.672 392.12C316.402 393.23 316.622 393.51 316.822 393.8C317.012 394.06 317.202 394.32 317.782 395.2L310.022 432.81C309.982 433 310.032 433.17 310.172 433.3C310.242 433.36 310.332 433.4 310.432 433.42C310.552 433.45 310.672 433.45 310.792 433.41C311.012 433.34 311.162 433.17 311.202 432.94L318.872 395.81C318.972 395.81 319.062 395.77 319.152 395.71C321.382 394.26 323.602 392.81 325.822 391.35L346.182 378.14C346.502 377.92 346.522 377.53 346.352 377.26C346.172 376.99 345.882 376.93 345.612 377.09C344.502 377.82 344.202 378 343.902 378.17C343.602 378.35 343.292 378.53 342.182 379.26L319.192 394.26L327.122 355.89V355.84L327.202 355.5C327.302 355.5 327.392 355.47 327.482 355.41L334.152 351.05L354.512 337.83C354.842 337.62 354.862 337.22 354.682 336.95C354.542 336.74 354.252 336.6 353.942 336.79C352.832 337.52 352.532 337.69 352.232 337.87C351.942 338.04 351.632 338.23 350.512 338.95L327.522 353.95L338.912 298.84C338.982 298.49 338.752 298.28 338.502 298.22C338.182 298.16 337.822 298.32 337.732 298.7L326.262 354.23L309.182 328.56C309.012 328.3 308.702 328.24 308.452 328.41C308.192 328.58 308.032 328.96 308.252 329.28L323.812 352.78C324.542 353.89 324.762 354.17 324.962 354.46C325.142 354.71 325.342 354.97 325.922 355.86H325.912Z" fill="#3A2F26"/>
<path d="M306.432 437.7C317.522 424.64 328.812 415.14 339.982 408.43C401.312 371.57 459.072 418.43 459.072 418.43C459.072 418.43 438.842 445.71 404.552 457.09C378.862 465.61 345.292 465.21 306.422 437.7H306.432Z" fill="#F76519"/>
<path d="M308.123 437.19C308.163 437.49 308.403 437.76 308.753 437.76C308.773 437.76 308.803 437.76 308.833 437.76L346.443 433.01C346.473 433.09 346.533 433.18 346.623 433.24L352.903 438.15L371.993 453.13C372.113 453.22 372.233 453.27 372.363 453.27C372.563 453.27 372.763 453.17 372.883 453.01C373.043 452.81 373.083 452.48 372.793 452.26C371.753 451.44 371.483 451.21 371.223 450.99C370.953 450.77 370.683 450.53 369.633 449.72L348.003 432.82L386.823 427.92C386.823 427.92 386.913 427.92 386.963 427.9L387.263 427.86C387.303 427.94 387.353 428.03 387.443 428.09L393.723 432.99L412.813 447.98C412.923 448.07 413.063 448.11 413.183 448.11C413.383 448.11 413.583 448.01 413.703 447.85C413.893 447.6 413.863 447.3 413.613 447.1C412.573 446.29 412.303 446.06 412.043 445.84C411.773 445.61 411.503 445.38 410.453 444.56L388.823 427.67L444.653 420.62C445.013 420.57 445.143 420.29 445.103 420.03C445.063 419.72 444.803 419.41 444.393 419.46L388.153 426.56L402.063 408.41L406.923 402.1C407.053 401.93 407.083 401.75 407.003 401.58C406.933 401.39 406.723 401.24 406.493 401.21C406.283 401.17 406.073 401.27 405.933 401.44L388.723 423.77C387.913 424.83 387.703 425.12 387.513 425.4C387.333 425.65 387.143 425.92 386.493 426.76L348.303 431.59L362.213 413.44L367.073 407.13C367.253 406.88 367.223 406.58 366.973 406.38C366.723 406.19 366.313 406.17 366.073 406.47L348.873 428.8C348.053 429.86 347.853 430.15 347.653 430.43C347.473 430.68 347.293 430.95 346.643 431.8L308.543 436.61C308.183 436.66 308.053 436.94 308.093 437.2L308.123 437.19Z" fill="#3A2F26"/>
<path d="M399.159 407.9C393.809 407.36 388.439 407.82 383.139 408.6C373.809 409.97 364.509 412.34 355.009 411.93C346.349 411.56 337.929 408.5 331.059 403.27C329.839 402.34 328.669 401.35 327.549 400.28C326.359 401.41 325.159 402.52 323.939 403.62C319.529 407.59 314.919 411.34 310.119 414.83C309.089 415.57 308.049 416.3 306.999 417.02C310.049 416.09 313.169 415.37 316.319 414.88C320.989 414.14 325.729 413.91 330.449 414.17C335.439 414.45 340.389 415.28 345.189 416.68C350.299 418.16 355.229 420.25 359.849 422.9C361.389 423.78 362.899 424.72 364.359 425.73C367.299 427.72 370.069 429.95 372.649 432.39C372.789 432.52 372.699 432.78 372.489 432.75C371.939 432.65 371.379 432.57 370.819 432.51C366.249 432.04 361.679 432.87 357.169 433.46C352.639 434.06 348.069 434.37 343.499 434.23C338.959 434.1 334.419 433.53 330.019 432.41C325.399 431.23 320.999 429.41 316.879 427C314.419 425.56 312.059 423.96 309.759 422.27C308.089 421.04 306.459 419.77 304.839 418.47C300.109 421.5 295.119 424.1 289.749 425.81C289.009 426.04 288.589 424.9 289.329 424.66C290.239 424.37 291.139 424.07 292.029 423.73C295.109 422.56 298.049 421.11 300.899 419.47C300.899 419.47 303.289 418.03 303.909 417.63C303.819 417.39 303.739 417.16 303.649 416.93C303.429 416.39 303.189 415.85 302.929 415.32C301.149 411.61 298.709 408.24 296.839 404.59C294.899 400.81 293.539 396.75 292.749 392.58C291.959 388.43 291.759 384.17 292.169 379.96C292.369 377.83 292.729 375.73 293.229 373.65C293.829 371.22 294.649 368.84 295.549 366.51C297.419 361.64 299.659 356.9 301.069 351.87C301.109 351.71 301.329 351.62 301.439 351.79C301.739 352.27 302.029 352.76 302.299 353.27C304.449 357.19 305.839 361.52 307.149 365.78C308.439 369.98 309.519 374.25 310.269 378.58C311.019 382.92 311.429 387.33 311.369 391.74C311.309 396.19 310.779 400.63 309.669 404.93C308.969 407.65 308.039 410.31 306.859 412.87C306.429 414.13 305.959 415.38 305.449 416.62C307.659 415.16 309.799 413.61 311.899 412.02C315.779 409.09 319.519 406 323.129 402.75C324.339 401.67 325.519 400.57 326.699 399.45C326.619 399.15 326.519 398.86 326.419 398.56C324.889 394.17 321.609 390.51 319.019 386.73C316.469 383.01 314.119 379.07 312.709 374.76C311.379 370.69 311.079 366.4 311.489 362.15C312.339 353.45 315.739 345.26 317.399 336.72C317.439 336.5 317.699 336.51 317.789 336.68C318.319 337.74 318.849 338.81 319.349 339.89C323.439 348.55 326.689 357.65 328.389 367.1C330.029 376.2 330.199 385.64 328.319 394.73C328.089 395.85 327.829 396.97 327.529 398.08C327.459 398.34 327.379 398.6 327.319 398.86C328.189 398.02 329.069 397.17 329.919 396.31C334.539 391.68 338.909 386.78 342.989 381.67C342.939 381.61 342.919 381.52 342.949 381.44C342.949 381.43 342.949 381.41 342.969 381.39C339.729 376.67 336.479 371.92 333.779 366.86C329.389 358.63 326.489 349.38 327.769 339.97C329.079 330.34 334.079 321.7 339.179 313.59C339.259 313.45 339.459 313.53 339.529 313.65C341.779 318.25 343.619 323.05 345.019 327.98C347.499 336.74 348.619 345.87 348.339 354.97C348.069 363.82 346.469 372.61 343.549 380.98C344.269 380.07 344.979 379.16 345.679 378.24C346.999 376.5 348.289 374.72 349.549 372.93C349.709 372.48 349.869 372.03 350.019 371.58C351.749 366.26 352.539 360.69 353.199 355.15C353.849 349.61 354.379 344.03 355.569 338.57C356.779 333.05 358.789 327.75 361.589 322.83C364.389 317.9 367.879 313.38 371.829 309.32C373.019 308.09 374.259 306.9 375.529 305.76C378.489 303.09 381.659 300.65 384.969 298.44C385.089 298.36 385.289 298.43 385.289 298.59C385.289 299.33 385.289 300.07 385.289 300.82C385.259 306.72 385.109 312.63 384.529 318.51C383.949 324.34 382.959 330.14 381.269 335.76C379.629 341.24 377.299 346.47 374.269 351.31C372.379 354.34 370.229 357.2 367.859 359.86C366.479 361.41 365.029 362.89 363.509 364.3C359.639 367.89 355.309 370.98 350.669 373.5C349.379 375.35 348.039 377.17 346.669 378.98C346.419 379.31 346.169 379.64 345.919 379.97C349.309 376.99 352.959 374.32 356.839 372.01C361.129 369.44 365.679 367.3 370.389 365.61C375.099 363.92 379.979 362.68 384.919 361.91C389.879 361.14 394.919 360.84 399.939 361.05C400.489 361.07 401.039 361.1 401.599 361.14C406.069 361.42 410.509 362.11 414.839 363.21C415.039 363.26 415.069 363.52 414.869 363.6C414.299 363.85 413.749 364.12 413.199 364.4C408.799 366.64 404.909 369.74 401.139 372.91C397.369 376.09 393.679 379.4 389.609 382.19C385.539 384.98 381.079 387.12 376.209 388.04C370.969 389.02 365.549 388.69 360.359 387.6C357.209 386.94 354.139 386 351.119 384.92C348.789 384.08 346.489 383.15 344.209 382.2C340.039 387.45 335.569 392.46 330.829 397.19C330.309 397.71 329.779 398.23 329.259 398.75C333.109 396.64 337.219 395.02 341.479 393.9C347.649 392.28 354.039 391.71 360.379 392.11C363.709 392.32 367.009 392.8 370.259 393.54C376.459 394.94 382.419 397.23 388.019 400.22C392.009 402.34 395.809 404.83 399.369 407.59C399.539 407.72 399.399 407.97 399.209 407.95L399.159 407.9Z" fill="#0177FB"/>
<path d="M148.699 435.17C157.479 420.46 162.809 406.7 165.549 393.96C180.589 324 117.579 284.5 117.579 284.5C117.579 284.5 98.3089 312.47 98.6289 348.59C98.8689 375.65 110.109 407.29 148.709 435.17H148.699Z" fill="#0177FB"/>
<path d="M133.168 355.86L140.948 393.56L153.628 374.53L158.028 367.89C158.138 367.72 158.298 367.64 158.488 367.65C158.698 367.65 158.898 367.8 159.008 368.01C159.118 368.22 159.098 368.44 158.978 368.62L143.408 392.12C142.678 393.23 142.458 393.51 142.258 393.8C142.068 394.06 141.878 394.32 141.298 395.2L149.058 432.81C149.098 433 149.048 433.17 148.908 433.3C148.838 433.36 148.748 433.4 148.648 433.42C148.528 433.45 148.408 433.45 148.288 433.41C148.068 433.34 147.918 433.17 147.878 432.94L140.208 395.81C140.108 395.81 140.018 395.77 139.928 395.71C137.698 394.26 135.478 392.81 133.258 391.35L112.898 378.14C112.578 377.92 112.558 377.53 112.728 377.26C112.908 376.99 113.198 376.93 113.468 377.09C114.578 377.82 114.878 378 115.178 378.17C115.478 378.35 115.788 378.53 116.898 379.26L139.888 394.26L131.958 355.89V355.84L131.878 355.5C131.778 355.5 131.688 355.47 131.598 355.41L124.928 351.05L104.568 337.83C104.238 337.62 104.218 337.22 104.398 336.95C104.538 336.74 104.828 336.6 105.138 336.79C106.248 337.52 106.548 337.69 106.848 337.87C107.138 338.04 107.448 338.23 108.568 338.95L131.558 353.95L120.168 298.84C120.098 298.49 120.328 298.28 120.578 298.22C120.898 298.16 121.258 298.32 121.348 298.7L132.818 354.23L149.898 328.56C150.068 328.3 150.378 328.24 150.628 328.41C150.888 328.58 151.048 328.96 150.828 329.28L135.268 352.78C134.538 353.89 134.318 354.17 134.118 354.46C133.938 354.71 133.738 354.97 133.158 355.86H133.168Z" fill="#3A2F26"/>
<path d="M152.65 437.7C141.56 424.64 130.27 415.14 119.1 408.43C57.76 371.58 0 418.43 0 418.43C0 418.43 20.23 445.71 54.52 457.09C80.21 465.61 113.78 465.21 152.65 437.7Z" fill="#0177FB"/>
<path d="M150.96 437.19C150.92 437.49 150.68 437.76 150.33 437.76C150.31 437.76 150.28 437.76 150.25 437.76L112.64 433.01C112.61 433.09 112.55 433.18 112.46 433.24L106.18 438.15L87.0896 453.13C86.9696 453.22 86.8496 453.27 86.7196 453.27C86.5196 453.27 86.3196 453.17 86.1996 453.01C86.0396 452.81 85.9996 452.48 86.2896 452.26C87.3296 451.44 87.5996 451.21 87.8596 450.99C88.1296 450.77 88.3996 450.53 89.4496 449.72L111.08 432.82L72.2596 427.92C72.2596 427.92 72.1696 427.92 72.1196 427.9L71.8196 427.86C71.7796 427.94 71.7296 428.03 71.6396 428.09L65.3596 432.99L46.2696 447.98C46.1596 448.07 46.0196 448.11 45.8996 448.11C45.6996 448.11 45.4996 448.01 45.3796 447.85C45.1896 447.6 45.2196 447.3 45.4696 447.1C46.5096 446.29 46.7796 446.06 47.0396 445.84C47.3096 445.61 47.5796 445.38 48.6296 444.56L70.2596 427.67L14.4296 420.62C14.0696 420.57 13.9396 420.29 13.9796 420.03C14.0196 419.72 14.2796 419.41 14.6896 419.46L70.9296 426.56L57.0196 408.41L52.1596 402.1C52.0296 401.93 51.9996 401.75 52.0796 401.58C52.1496 401.39 52.3596 401.24 52.5896 401.21C52.7996 401.17 53.0096 401.27 53.1496 401.44L70.3596 423.77C71.1696 424.83 71.3796 425.12 71.5696 425.4C71.7496 425.65 71.9396 425.92 72.5896 426.76L110.78 431.59L96.8696 413.44L92.0096 407.13C91.8296 406.88 91.8596 406.58 92.1096 406.38C92.3596 406.19 92.7696 406.17 93.0096 406.47L110.21 428.8C111.03 429.86 111.23 430.15 111.43 430.43C111.61 430.68 111.79 430.95 112.44 431.8L150.54 436.61C150.9 436.66 151.03 436.94 150.99 437.2L150.96 437.19Z" fill="#3A2F26"/>
<path d="M59.9201 407.9C65.2701 407.36 70.6401 407.82 75.9401 408.6C85.2701 409.97 94.5701 412.34 104.07 411.93C112.73 411.56 121.15 408.5 128.02 403.27C129.24 402.34 130.41 401.35 131.53 400.28C132.72 401.41 133.92 402.52 135.14 403.62C139.55 407.59 144.16 411.34 148.96 414.83C149.99 415.57 151.03 416.3 152.08 417.02C149.03 416.09 145.91 415.37 142.76 414.88C138.09 414.14 133.35 413.91 128.63 414.17C123.64 414.45 118.69 415.28 113.89 416.68C108.78 418.16 103.85 420.25 99.2301 422.9C97.6901 423.78 96.1801 424.72 94.7201 425.73C91.7801 427.72 89.0101 429.95 86.4301 432.39C86.2901 432.52 86.3801 432.78 86.5901 432.75C87.1401 432.65 87.7001 432.57 88.2601 432.51C92.8301 432.04 97.4001 432.87 101.91 433.46C106.44 434.06 111.01 434.37 115.58 434.23C120.12 434.1 124.66 433.53 129.06 432.41C133.68 431.23 138.08 429.41 142.2 427C144.66 425.56 147.02 423.96 149.32 422.27C150.99 421.04 152.62 419.77 154.24 418.47C158.97 421.5 163.96 424.1 169.33 425.81C170.07 426.04 170.49 424.9 169.75 424.66C168.84 424.37 167.94 424.07 167.05 423.73C163.97 422.56 161.03 421.11 158.18 419.47C158.18 419.47 155.79 418.03 155.17 417.63C155.26 417.39 155.34 417.16 155.43 416.93C155.65 416.39 155.89 415.85 156.15 415.32C157.93 411.61 160.37 408.24 162.24 404.59C164.18 400.81 165.54 396.75 166.33 392.58C167.12 388.43 167.32 384.17 166.91 379.96C166.71 377.83 166.35 375.73 165.85 373.65C165.25 371.22 164.43 368.84 163.53 366.51C161.66 361.64 159.42 356.9 158.01 351.87C157.97 351.71 157.75 351.62 157.64 351.79C157.34 352.27 157.05 352.76 156.78 353.27C154.63 357.19 153.24 361.52 151.93 365.78C150.64 369.98 149.56 374.25 148.81 378.58C148.06 382.92 147.65 387.33 147.71 391.74C147.77 396.19 148.3 400.63 149.41 404.93C150.11 407.65 151.04 410.31 152.22 412.87C152.65 414.13 153.12 415.38 153.63 416.62C151.42 415.16 149.28 413.61 147.18 412.02C143.3 409.09 139.56 406 135.95 402.75C134.74 401.67 133.56 400.57 132.38 399.45C132.46 399.15 132.56 398.86 132.66 398.56C134.19 394.17 137.47 390.51 140.06 386.73C142.61 383.01 144.96 379.07 146.37 374.76C147.7 370.69 148 366.4 147.59 362.15C146.74 353.45 143.34 345.26 141.68 336.72C141.64 336.5 141.38 336.51 141.29 336.68C140.76 337.74 140.23 338.81 139.73 339.89C135.64 348.55 132.39 357.65 130.69 367.1C129.05 376.2 128.88 385.64 130.76 394.73C130.99 395.85 131.25 396.97 131.55 398.08C131.62 398.34 131.7 398.6 131.76 398.86C130.89 398.02 130.01 397.17 129.16 396.31C124.54 391.68 120.17 386.78 116.09 381.67C116.14 381.61 116.16 381.52 116.13 381.44C116.13 381.43 116.13 381.41 116.11 381.39C119.35 376.67 122.6 371.92 125.3 366.86C129.69 358.63 132.59 349.38 131.31 339.97C130 330.34 125 321.7 119.9 313.59C119.82 313.45 119.62 313.53 119.55 313.65C117.3 318.25 115.46 323.05 114.06 327.98C111.58 336.74 110.46 345.87 110.74 354.97C111.01 363.82 112.61 372.61 115.53 380.98C114.81 380.07 114.1 379.16 113.4 378.24C112.08 376.5 110.79 374.72 109.53 372.93C109.37 372.48 109.21 372.03 109.06 371.58C107.33 366.26 106.54 360.69 105.88 355.15C105.23 349.61 104.7 344.03 103.51 338.57C102.3 333.05 100.29 327.75 97.4901 322.83C94.6901 317.9 91.2001 313.38 87.2501 309.32C86.0601 308.09 84.8201 306.9 83.5501 305.76C80.5901 303.09 77.4201 300.65 74.1101 298.44C73.9901 298.36 73.7901 298.43 73.7901 298.59C73.7901 299.33 73.7901 300.07 73.7901 300.82C73.8201 306.72 73.9701 312.63 74.5501 318.51C75.1301 324.34 76.1201 330.14 77.8101 335.76C79.4501 341.24 81.7801 346.47 84.8101 351.31C86.7001 354.34 88.8501 357.2 91.2201 359.86C92.6001 361.41 94.0501 362.89 95.5701 364.3C99.4401 367.89 103.77 370.98 108.41 373.5C109.7 375.35 111.04 377.17 112.41 378.98C112.66 379.31 112.91 379.64 113.16 379.97C109.77 376.99 106.12 374.32 102.24 372.01C97.9501 369.44 93.4001 367.3 88.6901 365.61C83.9801 363.92 79.1001 362.68 74.1601 361.91C69.2001 361.14 64.1601 360.84 59.1401 361.05C58.5901 361.07 58.0401 361.1 57.4801 361.14C53.0101 361.42 48.5701 362.11 44.2401 363.21C44.0401 363.26 44.0101 363.52 44.2101 363.6C44.7801 363.85 45.3301 364.12 45.8801 364.4C50.2801 366.64 54.1701 369.74 57.9401 372.91C61.7101 376.09 65.4001 379.4 69.4701 382.19C73.5401 384.98 78.0001 387.12 82.8701 388.04C88.1101 389.02 93.5301 388.69 98.7201 387.6C101.87 386.94 104.94 386 107.96 384.92C110.29 384.08 112.59 383.15 114.87 382.2C119.04 387.45 123.51 392.46 128.25 397.19C128.77 397.71 129.3 398.23 129.82 398.75C125.97 396.64 121.86 395.02 117.6 393.9C111.43 392.28 105.04 391.71 98.7001 392.11C95.3701 392.32 92.0701 392.8 88.8201 393.54C82.6201 394.94 76.6601 397.23 71.0601 400.22C67.0701 402.34 63.2701 404.83 59.7101 407.59C59.5401 407.72 59.6801 407.97 59.8701 407.95L59.9201 407.9Z" fill="#F76519"/>
<path d="M144.167 397.08L134.707 465.85H319.347L303.167 388.26L144.167 397.08Z" fill="#6C6D7F"/>
<path d="M306.609 313.31C306.609 313.31 324.679 336.38 348.679 336.48C372.679 336.58 380.649 302.75 388.529 258.27C388.529 258.27 401.409 250.44 402.799 236.22C402.799 236.22 410.699 236.06 413.129 227.69C415.559 219.33 410.579 217.82 410.579 217.82C410.579 217.82 410.719 210.75 405.949 209.43C405.949 209.43 406.319 201.79 399.419 202.57C399.419 202.57 413.809 179.02 408.869 172.66C403.939 166.3 392.889 192.54 382.879 198.44C382.879 198.44 371.589 196.46 368.079 205.6C364.569 214.74 362.099 235.07 362.099 235.07L342.569 274.89L333.329 263.28L306.619 313.3L306.609 313.31Z" fill="#FFC49C"/>
<path d="M410.191 218.3C408.061 222.91 404.411 226.68 399.911 229.03C397.631 230.22 395.111 231.06 392.561 231.36C389.981 231.66 386.091 231.12 385.871 227.82C385.851 227.6 385.761 227.43 385.621 227.32C395.111 225.65 402.921 218.9 406.141 209.85C406.461 208.94 405.001 208.62 404.681 209.52C401.691 217.93 394.381 224.07 385.671 225.78C385.811 222.1 384.611 218.32 382.571 215.12C385.231 215.8 388.031 216 390.751 215.63C393.321 215.28 396.001 213.92 395.591 210.88C395.211 208.08 393.041 205.35 391.171 203.33C389.131 201.14 386.661 199.38 383.941 198.14C383.071 197.74 382.361 199.07 383.251 199.47C387.671 201.49 391.961 205.23 393.781 209.85C394.291 211.14 394.351 212.58 393.061 213.39C392.031 214.03 390.721 214.16 389.541 214.25C386.601 214.47 383.671 214.04 380.901 213.05C380.311 212.84 379.711 213.69 380.101 214.17C384.361 219.56 386.221 227.58 381.301 233.22C380.671 233.95 381.761 234.97 382.401 234.24C383.581 232.88 384.421 231.39 384.951 229.83C385.961 231.72 388.161 232.78 390.361 232.93C390.971 232.97 391.591 232.95 392.201 232.91C392.221 233 392.241 233.09 392.281 233.18C393.931 236.84 398.091 238.7 401.941 237.66C402.871 237.41 402.441 235.97 401.511 236.22C398.381 237.06 395.191 235.55 393.731 232.72C395.661 232.39 397.571 231.75 399.291 230.98C404.641 228.59 409.081 224.3 411.541 218.98C411.941 218.11 410.621 217.41 410.211 218.29L410.191 218.3Z" fill="#3A2F26"/>
<path d="M398.93 202.2C398.6 201.92 398.18 201.95 397.87 202.24C396.63 203.38 395.38 204.52 394.14 205.66C393.85 205.93 393.89 206.47 394.18 206.72C394.51 207 394.93 206.97 395.24 206.68C396.48 205.54 397.73 204.4 398.97 203.26C399.26 202.99 399.22 202.45 398.93 202.2Z" fill="#3A2F26"/>
<path d="M341.959 274.78C337.969 281.7 335.029 289.19 333.249 296.98C333.029 297.92 334.499 298.25 334.709 297.31C336.469 289.64 339.359 282.29 343.289 275.48C343.769 274.64 342.439 273.95 341.959 274.79V274.78Z" fill="#3A2F26"/>
<path d="M315.868 386.24C318.648 389.99 313.368 420.43 278.068 427.94C242.758 435.44 204.678 412.09 204.678 412.09C177.428 418.21 152.138 416.12 142.958 404.31C133.788 392.49 145.738 386.65 150.188 371.78C154.638 356.91 158.938 301.45 158.938 301.45L119.328 293.39C119.538 292.43 119.728 291.41 119.918 290.36C120.338 287.93 120.718 285.28 121.048 282.5C123.138 264.81 123.398 241.57 123.418 232.81V231.66C123.418 230.13 123.408 229.27 123.408 229.27C123.408 229.27 159.218 220.14 182.158 216.66C205.088 213.19 223.748 220.95 223.748 220.95L238.038 222.5C238.038 222.5 270.138 214.85 289.738 220.95C309.338 227.05 334.778 263.09 334.778 263.09C322.408 306.59 305.028 319.8 305.028 319.8L296.408 311.18L306.698 375.67C306.698 375.67 313.088 382.48 315.868 386.24Z" fill="#F76518"/>
<path d="M160.598 270.34C160.028 279.79 159.458 289.24 158.888 298.69C158.828 299.65 160.328 299.59 160.388 298.64C160.958 289.19 161.528 279.74 162.098 270.29C162.158 269.33 160.658 269.39 160.598 270.34Z" fill="#3A2F26"/>
<path d="M154.658 294.52C152.818 288.31 150.978 282.1 149.138 275.88C148.868 274.95 147.428 275.39 147.698 276.31L153.218 294.95C153.488 295.88 154.928 295.44 154.658 294.52Z" fill="#3A2F26"/>
<path d="M296.62 308.72C295.26 303.89 293.9 299.07 292.53 294.24C292.27 293.31 290.83 293.74 291.09 294.67C292.45 299.5 293.81 304.32 295.18 309.15C295.44 310.08 296.88 309.65 296.62 308.72Z" fill="#3A2F26"/>
<path d="M298.488 297.91C298.048 297.93 297.798 298.28 297.768 298.69C297.558 301.28 297.348 303.88 297.138 306.47C297.108 306.87 297.538 307.21 297.918 307.19C298.358 307.17 298.608 306.82 298.638 306.41C298.848 303.82 299.058 301.22 299.268 298.63C299.298 298.23 298.868 297.89 298.488 297.91Z" fill="#3A2F26"/>
<path d="M205.857 411.73C199.807 406.68 194.137 401.19 188.907 395.3C188.267 394.58 187.247 395.68 187.887 396.4C193.117 402.29 198.787 407.78 204.837 412.83C205.577 413.45 206.607 412.35 205.857 411.73Z" fill="#3A2F26"/>
<path d="M254.779 412.82C244.179 407.67 234.029 401.58 224.539 394.59C221.839 392.61 219.199 390.55 216.609 388.44C215.869 387.83 214.839 388.92 215.589 389.54C224.779 397.05 234.629 403.73 245.019 409.46C247.999 411.1 251.019 412.67 254.089 414.15C254.959 414.57 255.659 413.24 254.779 412.82Z" fill="#3A2F26"/>
<path d="M273.31 406.8C264.64 407.14 256.02 404.9 248.61 400.39C247.79 399.89 247.09 401.22 247.92 401.72C255.54 406.35 264.46 408.65 273.37 408.3C274.34 408.26 274.28 406.76 273.32 406.8H273.31Z" fill="#3A2F26"/>
<path d="M214.668 209.1L208.578 226.42C208.578 226.42 224.328 238.16 247.398 229.82L244.798 210.19L214.678 209.09L214.668 209.1Z" fill="#EF9C62"/>
<path d="M333.869 172.11C327.929 178.17 319.519 181.66 311.039 181.81C299.699 209.44 268.969 218.1 233.679 214.89C198.329 211.68 169.629 197.57 163.519 168.26C155.609 166.4 148.369 161.56 143.829 154.8C137.659 145.68 136.649 133.31 141.219 123.28C143.529 118.18 147.309 113.61 152.249 110.93C153.539 110.24 154.899 109.68 156.309 109.28C158.719 108.59 161.259 108.35 163.749 108.63C165.379 108.79 166.979 109.2 168.519 109.85C170.909 110.87 173.049 112.58 174.649 114.67C174.649 114.67 174.649 114.69 174.679 114.71C174.679 114.69 174.699 114.66 174.719 114.64C175.719 114.47 176.699 114.19 177.629 113.8C177.939 113.67 178.239 113.53 178.539 113.38C182.819 111.4 186.929 109.06 190.829 106.4C198.969 100.86 206.169 93.9698 211.999 86.0498C210.479 89.1498 208.959 92.3298 208.539 95.7598C208.149 99.0898 208.999 102.76 211.509 104.97C211.579 105.03 211.649 105.1 211.729 105.16C215.719 108.44 221.669 106.99 226.459 105.05C228.759 104.11 231.039 103.1 233.289 102C239.289 99.0798 245.019 95.6098 250.389 91.6498C247.029 94.9498 243.579 98.4098 242.019 102.84C242.019 102.86 242.019 102.87 241.999 102.89C240.429 107.34 241.409 113.07 245.459 115.49C248.629 117.4 252.659 116.81 256.279 116.01C260.919 114.98 265.509 113.68 269.999 112.11C279.259 108.91 288.139 104.61 296.409 99.3298C295.739 104.2 295.569 109.13 295.889 114.03C296.269 119.97 297.529 125.69 299.479 131.2C299.499 131.27 299.529 131.35 299.549 131.42C301.329 136.96 303.869 142.24 307.099 147.08C308.059 140.45 309.229 134.35 310.149 127.73C312.219 125.62 314.889 124.09 317.749 123.45C318.479 123.28 319.219 123.16 319.959 123.12C323.449 122.81 326.999 123.61 330.139 125.23C331.349 125.85 332.499 126.6 333.559 127.45C337.929 130.99 340.809 136.15 342.189 141.59C344.859 152.28 341.629 164.27 333.929 172.14L333.869 172.11Z" fill="#FFC49C"/>
<g style="mix-blend-mode:soft-light" opacity="0.5">
<path d="M266.03 172.23C266.29 182.47 274.82 190.57 285.06 190.31C295.31 190.05 303.41 181.53 303.15 171.28C302.89 161.02 294.37 152.94 284.12 153.2C273.87 153.46 265.77 161.98 266.03 172.23Z" fill="black"/>
</g>
<g style="mix-blend-mode:soft-light" opacity="0.5">
<path d="M174.209 163.88C174.469 174.12 182.999 182.22 193.239 181.96C203.489 181.7 211.589 173.18 211.329 162.93C211.069 152.67 202.549 144.59 192.299 144.85C182.039 145.11 173.959 153.63 174.209 163.88Z" fill="black"/>
</g>
<path d="M203.171 159.733C216.11 159.315 226.247 148.084 225.813 134.649C225.379 121.213 214.538 110.66 201.6 111.078C188.661 111.496 178.524 122.727 178.958 136.162C179.392 149.598 190.232 160.151 203.171 159.733Z" fill="#FFF6EE"/>
<path d="M201.582 159.749C211.893 159.416 219.971 150.447 219.624 139.716C219.278 128.985 210.638 120.556 200.327 120.889C190.015 121.222 181.937 130.191 182.284 140.922C182.63 151.653 191.27 160.082 201.582 159.749Z" fill="#3A2F26"/>
<path d="M225.85 135.8C225.21 135.82 224.67 135.32 224.65 134.68C224.24 121.91 213.91 111.84 201.63 112.23C193.35 112.5 185.96 117.47 182.33 125.22C182.06 125.8 181.37 126.05 180.79 125.78C180.21 125.51 179.96 124.82 180.23 124.24C184.23 115.7 192.4 110.21 201.56 109.92C215.12 109.48 226.52 120.56 226.97 134.61C226.99 135.25 226.49 135.79 225.85 135.81V135.8Z" fill="#3A2F26"/>
<path d="M218.91 156.42C219.07 159 219.61 161.55 220.53 163.97C221.34 166.12 222.42 168.8 224.55 169.97C226.7 171.16 229.11 170.08 230.88 168.71C232.83 167.19 234.55 165.34 236 163.34C238.75 159.53 240.49 155.09 241.1 150.43C241.21 150.18 241.25 149.89 241.21 149.61C241.21 149.52 241.23 149.43 241.24 149.35C241.28 148.96 241.02 148.78 240.72 148.74C239.87 148 238.31 148.22 237.3 148.22C233.89 148.19 230.47 148.16 227.06 148.14C224.84 148.12 222.21 147.93 220.49 149.61C218.73 151.32 218.78 154.16 218.93 156.42H218.91Z" fill="#FFC49C"/>
<g style="mix-blend-mode:soft-light" opacity="0.5">
<path d="M221.33 163.24C224.59 167.15 230.82 168.02 234.51 164.36C234.53 164.34 234.56 164.31 234.58 164.27C234.75 164.11 234.92 163.93 235.08 163.73C235.09 163.73 235.11 163.7 235.11 163.69C235.62 163.08 236.04 162.39 236.33 161.64C237.51 158.64 236.85 155.37 235.52 152.53C234.32 150.02 232.84 148.96 229.93 148.53C227.34 148.12 222.54 147.76 220.43 149.41C216.19 152.76 218.18 159.45 221.34 163.24H221.33Z" fill="black"/>
</g>
<path d="M241.24 147.63C237.76 147.56 234.28 147.49 230.8 147.43C229.03 147.4 227.27 147.36 225.5 147.33C224.23 147.31 222.9 147.25 221.67 147.61C218.98 148.39 218.21 150.92 218.05 153.46C217.87 156.27 218.18 159.12 218.95 161.82C219.82 164.89 221.25 167.74 223.18 170.28C223.67 170.92 224.6 170.08 224.11 169.45C220.97 165.31 219.22 160.14 219.25 154.93C219.26 152.58 219.4 149.48 222.14 148.77C223.36 148.46 224.66 148.56 225.9 148.58C227.46 148.61 229.02 148.64 230.57 148.67C234.1 148.74 237.63 148.81 241.16 148.88C241.96 148.9 242.04 147.65 241.23 147.63H241.24Z" fill="#3A2F26"/>
<path d="M311.581 162.46C311.501 161.54 312.921 161.35 313.001 162.27C313.541 168.65 313.131 175.07 311.771 181.33C311.571 182.23 310.151 182.05 310.351 181.15C311.691 175.01 312.111 168.72 311.581 162.46Z" fill="#3A2F26"/>
<path d="M327.631 141.56C329.211 139.28 330.951 137.11 333.401 135.73C334.201 135.28 334.741 136.61 333.951 137.06C331.271 138.58 329.461 141.35 327.821 143.87C326.051 146.6 324.511 149.48 323.231 152.47C320.691 158.37 319.151 164.66 318.661 171.07C318.591 171.99 317.171 171.81 317.241 170.89C318.051 160.42 321.661 150.21 327.651 141.58L327.631 141.56Z" fill="#3A2F26"/>
<path d="M165.691 149.98C165.931 149.09 164.571 148.65 164.331 149.54C162.651 155.72 161.891 162.11 162.101 168.51C162.131 169.43 163.561 169.51 163.531 168.59C163.321 162.31 164.041 156.05 165.691 149.98Z" fill="#3A2F26"/>
<path d="M153.668 126.53C152.528 124 151.208 121.56 149.048 119.75C148.338 119.16 147.568 120.37 148.268 120.96C150.628 122.93 151.918 125.99 153.068 128.76C154.318 131.76 155.308 134.87 156.038 138.05C157.468 144.31 157.848 150.78 157.178 157.17C157.078 158.09 158.508 158.17 158.608 157.25C159.698 146.8 157.998 136.11 153.658 126.54L153.668 126.53Z" fill="#3A2F26"/>
<path d="M262.299 177.65C264.629 183.63 259.529 190.64 254.419 193.93C251.089 196.08 247.289 197.42 243.379 197.9C243.459 187.42 252.769 178.53 262.299 177.65Z" fill="#ED5C2F"/>
<path d="M262.31 177.66C252.78 178.54 243.47 187.42 243.4 197.9C239.74 198.35 236.01 198.05 232.47 196.89C228.59 195.63 224.82 193.28 222.78 189.65C220.89 186.26 220.74 182.11 222.92 178.86C223.14 178.51 223.43 178.2 223.76 177.9C225.84 175.99 229.8 174.88 233.66 174.93C237.98 175 242.3 174.33 246.25 172.6C249.76 171.05 253.63 170.59 257.03 172.18C258.14 172.7 259.2 173.42 260.18 174.4C261.2 175.42 261.87 176.52 262.32 177.65L262.31 177.66Z" fill="#3A2F26"/>
<path d="M246.23 172.59C242.27 174.33 237.96 174.99 233.65 174.93C229.79 174.88 225.82 175.99 223.75 177.89C229.12 181.73 236.87 183.13 243.78 181.62C243.56 180.44 243.81 179.08 244.4 178.04C245.03 176.92 245.9 175.99 247.11 175.49C248.28 175 249.73 175.03 250.87 175.61C251.63 176 252.37 176.55 252.88 177.26C254.52 175.87 255.95 174.2 257.04 172.18C253.63 170.58 249.77 171.04 246.25 172.59H246.23Z" fill="#FFF6EE"/>
<path d="M330.08 125.2C326.95 123.58 323.39 122.79 319.9 123.09C319.16 123.14 318.42 123.26 317.69 123.42C314.82 124.06 312.15 125.6 310.09 127.7C309.16 134.32 307.99 140.42 307.04 147.05C303.82 142.2 301.28 136.92 299.49 131.39C299.47 131.32 299.44 131.24 299.42 131.17C297.48 125.66 296.22 119.94 295.83 114C295.51 109.1 295.68 104.17 296.35 99.3001C288.09 104.58 279.2 108.87 269.94 112.08C265.45 113.65 260.86 114.95 256.22 115.98C252.6 116.78 248.58 117.37 245.4 115.46C241.35 113.04 240.38 107.31 241.94 102.86C241.94 102.84 241.94 102.83 241.96 102.81C243.53 98.3801 246.97 94.9201 250.33 91.6201C244.96 95.5801 239.23 99.0601 233.23 101.97C230.98 103.07 228.71 104.09 226.4 105.02C221.61 106.96 215.66 108.41 211.67 105.13C211.59 105.07 211.52 105 211.45 104.94C208.94 102.73 208.08 99.0601 208.48 95.7301C208.89 92.3001 210.42 89.1201 211.94 86.0201C206.11 93.9401 198.91 100.83 190.77 106.37C186.87 109.03 182.75 111.37 178.48 113.35C178.17 113.5 177.88 113.64 177.57 113.77C176.64 114.15 175.67 114.44 174.66 114.61C174.64 114.63 174.63 114.66 174.62 114.68C174.6 114.66 174.6 114.65 174.59 114.64C172.99 112.55 170.86 110.85 168.46 109.82C166.92 109.17 165.32 108.76 163.69 108.6C161.21 108.32 158.67 108.56 156.25 109.25C151.66 102.63 154.07 92.4601 160 86.6201C166.42 80.3201 175.6 77.8601 184.37 75.8301C177.91 75.6101 172.44 68.9801 173.46 62.5901C174.45 56.3901 180.21 52.1501 185.89 49.4901C200.78 42.5401 218.52 41.9401 233.84 47.8901C231.14 44.9901 232.2 39.9601 235.12 37.2801C238.06 34.6101 242.2 33.7801 246.15 33.4501C269.53 31.4801 293.53 44.2901 304.93 64.8001C306.22 59.7101 313.18 57.8901 317.9 60.2201C322.62 62.5501 325.38 67.5301 327.36 72.3901C334.14 89.0201 335.09 107.93 330.04 125.16L330.08 125.2Z" fill="#AA6F44"/>
<path d="M291.781 152.2C284.741 149.88 277.361 148.66 269.951 148.63C264.241 148.6 258.011 148.98 252.711 151.38C259.731 137.9 274.511 129.72 289.851 131.38C291.101 131.52 291.551 129.59 290.281 129.46C281.531 128.51 272.581 130.42 265.091 135.09C258.241 139.36 252.811 145.77 249.681 153.19C249.321 154.04 250.191 155.04 251.071 154.49C256.701 150.91 263.991 150.53 270.481 150.61C277.581 150.69 284.621 151.91 291.361 154.13C292.561 154.53 292.991 152.6 291.791 152.21L291.781 152.2Z" fill="#3A2F26"/>
<path d="M279.03 115.93C272.66 115.64 266.55 117.23 261.04 120.43C257.19 122.66 260.82 128.53 264.65 126.31C269.19 123.68 274.04 122.59 279.26 122.83C283.7 123.03 283.43 116.14 279.02 115.94L279.03 115.93Z" fill="#3A2F26"/>
<path d="M214.191 96.6698C207.201 95.6798 200.311 96.4098 193.801 99.1898C189.751 100.91 191.701 107.53 195.781 105.8C201.191 103.49 206.831 102.57 212.681 103.4C217.041 104.02 218.601 97.2998 214.201 96.6698H214.191Z" fill="#3A2F26"/>
<path d="M306.43 69.0199C303.14 53.0899 292.81 38.8699 278.57 30.9699C271.04 26.7899 262.56 24.3699 253.97 23.8799C249.84 23.6399 245.63 23.8199 241.56 24.5699C237.98 25.2299 234.35 26.4799 231.57 28.9099C228.16 31.8999 227.15 36.3899 228.03 40.7299C228.68 43.8999 230.27 46.6899 232.17 49.2799C221.21 42.2199 207.61 39.4999 194.73 41.5499C187.48 42.7099 179.94 45.2999 174.13 49.9099C171.31 52.1499 168.84 54.9499 167.65 58.3999C166.47 61.8299 166.89 65.4999 168.53 68.6999C172.94 77.2999 183.01 79.4999 191.7 81.0799C192.65 81.2499 192.98 79.7899 192.03 79.6199C184.55 78.2599 176.07 76.6699 171.23 70.1799C169.11 67.3399 167.96 63.8299 168.68 60.2899C169.39 56.8299 171.67 53.9499 174.3 51.6999C179.59 47.1599 186.67 44.5799 193.44 43.2899C200.35 41.9699 207.54 42.0999 214.41 43.5799C222.16 45.2399 229.53 48.6499 235.67 53.6699C236.43 54.2899 237.3 53.2999 236.69 52.5699C233.91 49.2499 230.99 45.7599 229.77 41.5299C228.64 37.6399 229.15 33.3999 232.1 30.4599C234.51 28.0499 237.92 26.8499 241.19 26.1699C245.07 25.3599 249.13 25.1699 253.08 25.3399C269.16 25.9999 284.5 33.7699 294.37 46.4999C299.59 53.2399 303.25 61.0999 304.98 69.4499C305.18 70.3999 306.61 69.9599 306.42 69.0199H306.43Z" fill="#AA6F44"/>
<path d="M302.489 38.8298C302.069 37.9598 300.799 38.7498 301.209 39.6198C304.049 45.4998 305.399 51.9998 305.209 58.5198C305.179 59.4898 306.679 59.4298 306.709 58.4698C306.909 51.6798 305.439 44.9498 302.489 38.8398V38.8298Z" fill="#AA6F44"/>
<path d="M312.269 40.3801C312.219 39.4201 310.719 39.4701 310.769 40.4301C311.039 45.6101 310.199 50.8101 308.269 55.6301C307.919 56.5201 309.239 57.2201 309.599 56.3201C311.629 51.2501 312.549 45.8201 312.269 40.3701V40.3801Z" fill="#AA6F44"/>
<path d="M173.383 178.142C176.329 174.805 176.012 169.711 172.675 166.765C169.338 163.819 164.245 164.136 161.298 167.473L128.657 204.446C125.711 207.783 126.027 212.876 129.364 215.822C132.701 218.768 137.795 218.451 140.741 215.114L173.383 178.142Z" fill="#0177FB"/>
<path d="M181.938 160.227L176.383 155.323L166.449 166.575L172.004 171.479L181.938 160.227Z" fill="#B2AEAB"/>
<path d="M200.75 98.2197C181.09 98.2197 165.09 114.22 165.09 133.88C165.09 153.54 181.09 169.54 200.75 169.54C220.41 169.54 236.41 153.55 236.41 133.88C236.41 114.21 220.42 98.2197 200.75 98.2197ZM200.75 163.54C184.39 163.54 171.09 150.24 171.09 133.88C171.09 117.52 184.39 104.22 200.75 104.22C217.11 104.22 230.41 117.52 230.41 133.88C230.41 150.24 217.11 163.54 200.75 163.54Z" fill="#0177FB"/>
<path opacity="0.3" d="M229.609 140.685C233.372 124.742 223.498 108.768 207.556 105.005C191.613 101.242 175.639 111.116 171.876 127.058C168.113 143.001 177.987 158.976 193.929 162.738C209.872 166.501 225.847 156.628 229.609 140.685Z" fill="white"/>
<path d="M185.337 103.17C175.757 108.08 168.737 117.44 166.687 128C166.507 128.95 167.967 129.28 168.147 128.33C170.127 118.13 176.877 109.18 186.127 104.45C186.987 104.01 186.197 102.73 185.337 103.17Z" fill="#3A2F26"/>
<path d="M218.999 160.7C214.539 164.03 209.259 166.15 203.719 166.75C202.759 166.85 202.809 168.35 203.769 168.25C209.559 167.62 215.109 165.47 219.779 161.98C220.549 161.41 219.769 160.12 218.989 160.7H218.999Z" fill="#3A2F26"/>
<path d="M143.405 210.519L130.755 202.429C129.945 201.909 129.255 203.239 130.065 203.759L142.715 211.849C143.525 212.369 144.215 211.039 143.405 210.519Z" fill="#3A2F26"/>
<path d="M147.336 206.31C144.596 202.26 141.846 198.2 139.106 194.15C138.566 193.35 137.286 194.14 137.826 194.94C140.566 198.99 143.316 203.05 146.056 207.1C146.596 207.9 147.876 207.11 147.336 206.31Z" fill="#3A2F26"/>
<path d="M177.188 174.82C174.838 180.78 169.008 178.28 169.008 178.28C169.008 178.28 170.088 182.69 167.208 185.29C164.308 187.88 161.148 186 161.148 186C161.148 186 162.748 189 158.808 191.4C155.168 193.61 153.198 191.26 152.918 190.9C153.088 191.32 154.188 194.39 151.308 196.31C148.218 198.38 142.108 195.25 140.398 192.63C140.398 192.63 137.338 199.54 130.898 204.16L113.978 232.81H123.418C123.398 241.57 123.138 264.81 121.048 282.5C120.718 285.28 120.338 287.93 119.918 290.36C105.018 287.62 62.5681 278.35 54.6781 261.97C42.9981 237.76 67.6781 219.9 81.4281 208.68C95.1881 197.47 117.558 180.91 117.558 180.91C117.558 180.91 122.428 166.75 134.188 160.67C145.948 154.59 161.368 157.46 161.368 157.46C161.368 157.46 166.238 153.97 169.148 154.23C172.078 154.5 172.298 163.8 172.298 163.8C172.298 163.8 179.538 168.85 177.188 174.82Z" fill="#FFC49C"/>
<path d="M172.027 163.44C169.257 161.19 166.207 159.28 162.977 157.76C162.107 157.35 161.457 158.7 162.337 159.11C165.457 160.57 168.387 162.4 171.057 164.58C171.807 165.19 172.777 164.05 172.027 163.44Z" fill="#3A2F26"/>
<path d="M169.108 176.21C165.398 172.3 161.028 169.08 156.208 166.68C155.348 166.25 154.698 167.6 155.568 168.03C160.278 170.38 164.518 173.53 168.138 177.35C168.798 178.05 169.768 176.9 169.108 176.21Z" fill="#3A2F26"/>
<path d="M161.908 184.3C159.028 179.94 155.378 176.11 151.158 173.02C150.388 172.45 149.408 173.59 150.188 174.16C154.308 177.17 157.858 180.88 160.668 185.14C161.198 185.95 162.438 185.1 161.908 184.3Z" fill="#3A2F26"/>
<path d="M153.89 190.13C151.11 186.2 148.33 182.27 145.55 178.35C144.99 177.56 143.75 178.4 144.31 179.19C147.09 183.12 149.87 187.05 152.65 190.97C153.21 191.76 154.45 190.92 153.89 190.13Z" fill="#3A2F26"/>
<path d="M140.848 192.29C139.088 190.15 137.488 187.88 136.068 185.49C135.858 185.14 135.348 185.07 135.028 185.29C134.678 185.53 134.618 185.98 134.828 186.33C136.248 188.71 137.848 190.99 139.608 193.13C139.868 193.44 140.298 193.57 140.648 193.33C140.958 193.12 141.108 192.6 140.848 192.29Z" fill="#3A2F26"/>
<path d="M112.926 233.16C109.426 237.41 105.916 241.67 102.416 245.92C101.806 246.66 102.946 247.64 103.556 246.89C107.056 242.64 110.566 238.38 114.066 234.13C114.676 233.39 113.536 232.41 112.926 233.16Z" fill="#3A2F26"/>
<path d="M439.518 156.97L424.778 175.67L404.238 157.29L388.548 179.95L369.858 165.21L388.238 144.67L365.578 128.98L380.328 110.28L400.858 128.66L416.558 106L435.238 120.74L416.868 141.28L439.518 156.97Z" fill="#F76518"/>
<path d="M70.6475 340.97C70.5875 340.97 70.5175 340.97 70.4575 340.95C69.1575 340.61 67.8475 340.23 66.5775 339.82C66.1875 339.69 65.9675 339.27 66.0875 338.88C66.2175 338.49 66.6375 338.27 67.0275 338.39C68.2775 338.79 69.5575 339.16 70.8375 339.49C71.2375 339.59 71.4775 340 71.3775 340.41C71.2875 340.75 70.9875 340.97 70.6575 340.97H70.6475Z" fill="#3A2F26"/>
<path d="M59.3486 337C59.2486 337 59.1386 336.98 59.0486 336.94C56.6186 335.86 54.1986 334.63 51.8686 333.28C51.5086 333.07 51.3886 332.61 51.5986 332.26C51.8086 331.9 52.2686 331.78 52.6186 331.99C54.9086 333.31 57.2786 334.52 59.6586 335.58C60.0386 335.75 60.2086 336.19 60.0386 336.57C59.9186 336.85 59.6386 337.02 59.3486 337.02V337ZM45.5386 329.03C45.3886 329.03 45.2286 328.98 45.0986 328.89C42.9286 327.32 40.8186 325.62 38.8186 323.84C38.5086 323.56 38.4786 323.09 38.7586 322.78C39.0386 322.47 39.5086 322.44 39.8186 322.72C41.7786 324.47 43.8586 326.14 45.9786 327.67C46.3186 327.91 46.3886 328.38 46.1486 328.72C45.9986 328.92 45.7686 329.03 45.5386 329.03ZM33.6286 318.42C33.4286 318.42 33.2286 318.34 33.0786 318.18C31.2586 316.2 29.5386 314.11 27.9386 311.97C27.6886 311.64 27.7586 311.17 28.0886 310.92C28.4186 310.67 28.8886 310.74 29.1386 311.07C30.6986 313.17 32.3986 315.22 34.1786 317.16C34.4586 317.46 34.4386 317.94 34.1286 318.22C33.9886 318.35 33.7986 318.42 33.6186 318.42H33.6286ZM24.1086 305.63C23.8486 305.63 23.5986 305.5 23.4586 305.26C22.7386 304.05 22.0486 302.8 21.3886 301.55C20.7986 300.42 20.2386 299.27 19.7186 298.11C19.5486 297.73 19.7186 297.29 20.0886 297.12C20.4586 296.95 20.9086 297.12 21.0786 297.49C21.5886 298.62 22.1386 299.75 22.7186 300.85C23.3586 302.08 24.0386 303.3 24.7486 304.48C24.9586 304.84 24.8386 305.3 24.4886 305.51C24.3686 305.58 24.2386 305.62 24.1086 305.62V305.63ZM17.5086 291.12C17.1886 291.12 16.8986 290.92 16.7986 290.6C15.9686 288.07 15.2686 285.45 14.7186 282.81C14.6286 282.4 14.8886 282.01 15.2986 281.92C15.7086 281.83 16.0986 282.09 16.1886 282.5C16.7386 285.09 17.4186 287.66 18.2286 290.13C18.3586 290.52 18.1386 290.95 17.7486 291.08C17.6686 291.11 17.5886 291.12 17.5186 291.12H17.5086ZM14.2186 275.52C13.8386 275.52 13.5086 275.23 13.4686 274.85C13.1986 272.22 13.0586 269.53 13.0586 266.88C13.0586 266.47 13.3986 266.09 13.8086 266.09C14.2186 266.09 14.5586 266.39 14.5586 266.8C14.5586 269.48 14.6886 272.11 14.9586 274.7C14.9986 275.11 14.6986 275.48 14.2886 275.52C14.2586 275.52 14.2386 275.52 14.2086 275.52H14.2186ZM14.2286 259.57C14.2286 259.57 14.1786 259.57 14.1486 259.57C13.7386 259.53 13.4386 259.16 13.4786 258.75C13.7486 256.09 14.1686 253.41 14.7086 250.79C14.7886 250.38 15.1886 250.12 15.5986 250.21C16.0086 250.29 16.2686 250.69 16.1786 251.1C15.6486 253.67 15.2386 256.3 14.9686 258.91C14.9286 259.3 14.5986 259.58 14.2186 259.58L14.2286 259.57ZM17.4586 243.96C17.3886 243.96 17.3086 243.95 17.2286 243.92C16.8286 243.8 16.6186 243.37 16.7386 242.98C17.5486 240.42 18.4986 237.88 19.5586 235.43C19.7186 235.05 20.1686 234.87 20.5486 235.04C20.9286 235.2 21.0986 235.65 20.9386 236.03C19.8986 238.43 18.9686 240.92 18.1686 243.44C18.0686 243.76 17.7686 243.96 17.4586 243.96ZM23.8586 229.37C23.7286 229.37 23.5986 229.34 23.4786 229.27C23.1186 229.06 22.9986 228.6 23.2086 228.24C24.5286 225.99 26.0286 223.73 27.6686 221.52C27.9186 221.19 28.3786 221.12 28.7186 221.37C29.0486 221.62 29.1186 222.09 28.8686 222.42C27.2586 224.58 25.7886 226.8 24.4986 229C24.3586 229.24 24.1086 229.37 23.8486 229.37H23.8586ZM33.3286 216.54C33.1486 216.54 32.9686 216.48 32.8286 216.35C32.5186 216.07 32.4886 215.6 32.7686 215.29C34.4586 213.39 36.2786 211.49 38.3186 209.48C38.6186 209.19 39.0886 209.19 39.3786 209.48C39.6686 209.78 39.6686 210.25 39.3786 210.54C37.3586 212.53 35.5586 214.4 33.8986 216.28C33.7486 216.45 33.5486 216.53 33.3386 216.53L33.3286 216.54ZM44.6686 205.3C44.4686 205.3 44.2586 205.22 44.1086 205.05C43.8286 204.74 43.8586 204.27 44.1586 203.99C46.1786 202.16 48.2386 200.36 50.1486 198.69C50.4586 198.42 50.9386 198.45 51.2086 198.76C51.4786 199.07 51.4486 199.55 51.1386 199.82C49.2286 201.49 47.1786 203.28 45.1686 205.1C45.0286 205.23 44.8486 205.29 44.6686 205.29V205.3ZM56.6686 194.76C56.4586 194.76 56.2486 194.67 56.1086 194.51C55.8386 194.2 55.8686 193.72 56.1786 193.45C58.5086 191.41 60.3886 189.71 62.0986 188.12C62.3986 187.84 62.8786 187.86 63.1586 188.16C63.4386 188.46 63.4186 188.94 63.1186 189.22C61.3886 190.82 59.4986 192.52 57.1686 194.57C57.0286 194.69 56.8486 194.76 56.6686 194.76ZM68.3186 183.84C68.1286 183.84 67.9486 183.77 67.7986 183.63C67.4986 183.34 67.4886 182.87 67.7786 182.57C69.7186 180.54 71.4286 178.6 73.0086 176.63C73.2686 176.31 73.7386 176.25 74.0586 176.51C74.3786 176.77 74.4386 177.24 74.1786 177.56C72.5686 179.57 70.8286 181.55 68.8586 183.61C68.7086 183.76 68.5186 183.84 68.3186 183.84ZM78.2186 171.34C78.0886 171.34 77.9486 171.3 77.8186 171.23C77.4686 171.01 77.3586 170.55 77.5786 170.2C78.9986 167.91 80.2386 165.57 81.2486 163.24C81.4186 162.86 81.8586 162.69 82.2386 162.85C82.6186 163.02 82.7886 163.46 82.6286 163.84C81.5886 166.24 80.3086 168.64 78.8486 170.99C78.7086 171.22 78.4586 171.34 78.2086 171.34H78.2186ZM84.5586 156.75C84.4986 156.75 84.4286 156.75 84.3686 156.72C83.9686 156.61 83.7286 156.2 83.8386 155.8C84.4886 153.37 85.0186 150.76 85.3986 148.07C85.4586 147.66 85.8386 147.38 86.2486 147.43C86.6586 147.49 86.9486 147.87 86.8886 148.28C86.4986 151.04 85.9686 153.7 85.2986 156.19C85.2086 156.52 84.9086 156.75 84.5786 156.75H84.5586ZM86.8586 140.97C86.8586 140.97 86.8386 140.97 86.8186 140.97C86.4086 140.95 86.0886 140.6 86.1086 140.19C86.1886 138.54 86.2186 136.8 86.2186 135.01C86.2186 134.09 86.2186 133.17 86.1886 132.25C86.1886 131.84 86.5086 131.49 86.9286 131.48C87.3086 131.47 87.6786 131.8 87.6886 132.21C87.7086 133.14 87.7186 134.07 87.7186 135C87.7186 136.81 87.6786 138.57 87.5986 140.25C87.5786 140.65 87.2486 140.97 86.8486 140.97H86.8586ZM86.6086 125.01C86.2186 125.01 85.8886 124.7 85.8586 124.3L85.8286 123.76C85.6786 121.33 85.4986 118.85 85.3086 116.34C85.2786 115.93 85.5886 115.57 85.9986 115.54C86.4286 115.52 86.7686 115.82 86.7986 116.23C86.9886 118.75 87.1686 121.23 87.3186 123.67L87.3486 124.21C87.3686 124.62 87.0586 124.98 86.6486 125C86.6286 125 86.6186 125 86.5986 125L86.6086 125.01ZM85.4886 109.08C85.0986 109.08 84.7686 108.77 84.7386 108.38C84.5486 105.38 84.4186 102.76 84.3486 100.38C84.3386 99.9698 84.6586 99.6198 85.0786 99.6098H85.0986C85.4986 99.6098 85.8386 99.9298 85.8486 100.34C85.9186 102.71 86.0486 105.31 86.2286 108.29C86.2586 108.7 85.9386 109.06 85.5286 109.09C85.5086 109.09 85.4986 109.09 85.4786 109.09L85.4886 109.08ZM403.849 93.5798C403.579 93.5798 403.319 93.4398 403.189 93.1898C402.919 92.6998 402.629 92.2098 402.329 91.7498C401.239 90.0998 399.919 88.5598 398.409 87.1598C398.109 86.8798 398.089 86.4098 398.369 86.0998C398.649 85.7998 399.129 85.7798 399.429 86.0598C401.029 87.5398 402.429 89.1798 403.589 90.9198C403.919 91.4198 404.239 91.9498 404.519 92.4798C404.719 92.8398 404.579 93.2998 404.219 93.4998C404.109 93.5598 403.979 93.5898 403.859 93.5898L403.849 93.5798ZM85.0886 93.1198C85.0886 93.1198 85.0786 93.1198 85.0686 93.1198C84.6586 93.1098 84.3286 92.7598 84.3386 92.3498C84.4186 89.4898 84.5986 86.8598 84.8786 84.3198C84.9286 83.9098 85.2986 83.6198 85.7086 83.6598C86.1186 83.7098 86.4186 84.0798 86.3686 84.4898C86.0886 86.9898 85.9186 89.5798 85.8386 92.3898C85.8286 92.7998 85.4986 93.1198 85.0886 93.1198ZM392.419 82.7498C392.299 82.7498 392.169 82.7198 392.059 82.6598C389.959 81.4998 387.609 80.4398 384.879 79.4298C384.489 79.2898 384.289 78.8498 384.439 78.4698C384.589 78.0898 385.019 77.8798 385.399 78.0298C388.199 79.0698 390.609 80.1498 392.779 81.3498C393.139 81.5498 393.269 82.0098 393.069 82.3698C392.929 82.6198 392.679 82.7598 392.409 82.7598L392.419 82.7498ZM86.9486 77.2798C86.8886 77.2798 86.8386 77.2798 86.7786 77.2598C86.3786 77.1698 86.1186 76.7598 86.2186 76.3598C86.8386 73.6498 87.6386 71.0398 88.5786 68.6298C88.7286 68.2398 89.1686 68.0598 89.5486 68.1998C89.9386 68.3498 90.1286 68.7898 89.9686 69.1698C89.0486 71.5198 88.2786 74.0498 87.6686 76.6898C87.5886 77.0398 87.2786 77.2698 86.9386 77.2698L86.9486 77.2798ZM377.539 77.0298C377.469 77.0298 377.399 77.0298 377.329 76.9998C375.989 76.6098 374.659 76.2498 373.359 75.8898C372.099 75.5498 370.859 75.1898 369.629 74.8298C369.229 74.7098 369.009 74.2898 369.119 73.8998C369.229 73.5098 369.649 73.2798 370.049 73.3898C371.269 73.7498 372.499 74.0998 373.749 74.4398C375.059 74.7998 376.389 75.1698 377.739 75.5498C378.139 75.6598 378.369 76.0798 378.249 76.4798C378.159 76.8098 377.859 77.0198 377.529 77.0198L377.539 77.0298ZM362.279 72.3298C362.189 72.3298 362.099 72.3098 362.009 72.2798C359.299 71.2398 356.899 70.1498 354.659 68.9398C354.299 68.7398 354.159 68.2898 354.359 67.9198C354.559 67.5598 355.009 67.4198 355.379 67.6198C357.559 68.7998 359.909 69.8598 362.559 70.8798C362.949 71.0298 363.139 71.4598 362.989 71.8498C362.879 72.1498 362.589 72.3298 362.289 72.3298H362.279ZM348.339 64.6698C348.179 64.6698 348.009 64.6198 347.879 64.5098C345.769 62.8398 343.789 60.9598 342.009 58.9098C341.739 58.5998 341.769 58.1198 342.089 57.8498C342.399 57.5798 342.869 57.6098 343.149 57.9198C344.869 59.8998 346.769 61.7198 348.819 63.3298C349.149 63.5898 349.199 64.0598 348.939 64.3798C348.789 64.5698 348.569 64.6698 348.349 64.6698H348.339ZM92.7986 62.4898C92.6686 62.4898 92.5286 62.4498 92.4086 62.3798C92.0586 62.1598 91.9386 61.6998 92.1586 61.3498C93.3986 59.3098 94.8086 57.3698 96.3586 55.5598C96.5686 55.3198 96.7786 55.0698 96.9886 54.8398C97.2686 54.5298 97.7386 54.4998 98.0486 54.7798C98.3586 55.0598 98.3786 55.5298 98.1086 55.8398C97.8986 56.0698 97.6986 56.2998 97.4986 56.5398C95.9986 58.2898 94.6386 60.1698 93.4486 62.1298C93.3086 62.3598 93.0586 62.4898 92.8086 62.4898H92.7986ZM337.669 52.8598C337.429 52.8598 337.199 52.7498 337.059 52.5398C335.449 50.2698 333.899 47.9198 332.579 45.8898C332.349 45.5398 332.449 45.0798 332.799 44.8498C333.149 44.6198 333.609 44.7198 333.839 45.0698C335.149 47.0798 336.689 49.4198 338.289 51.6698C338.529 52.0098 338.449 52.4798 338.109 52.7198C337.979 52.8098 337.829 52.8598 337.679 52.8598H337.669ZM103.369 50.6398C103.149 50.6398 102.929 50.5398 102.779 50.3498C102.529 50.0198 102.579 49.5498 102.909 49.2998C104.979 47.6798 107.259 46.1898 109.689 44.8698C110.059 44.6698 110.509 44.8098 110.709 45.1698C110.909 45.5298 110.769 45.9898 110.409 46.1898C108.059 47.4698 105.839 48.9198 103.839 50.4798C103.699 50.5898 103.539 50.6398 103.379 50.6398H103.369ZM117.289 42.9598C116.989 42.9598 116.699 42.7798 116.589 42.4798C116.439 42.0898 116.639 41.6598 117.019 41.5098C119.409 40.5998 121.919 39.7898 124.689 39.0398C125.089 38.9298 125.499 39.1698 125.609 39.5698C125.719 39.9698 125.479 40.3798 125.079 40.4898C122.359 41.2298 119.899 42.0198 117.559 42.9198C117.469 42.9498 117.379 42.9698 117.289 42.9698V42.9598ZM328.809 39.5598C328.569 39.5598 328.329 39.4398 328.189 39.2298C326.479 36.7098 324.989 34.6698 323.519 32.8198C323.259 32.4998 323.319 32.0198 323.639 31.7698C323.959 31.5098 324.439 31.5698 324.689 31.8898C326.189 33.7698 327.689 35.8398 329.419 38.3898C329.649 38.7298 329.559 39.1998 329.219 39.4298C329.089 39.5198 328.939 39.5598 328.799 39.5598H328.809ZM132.659 38.6998C132.309 38.6998 131.999 38.4498 131.929 38.0998C131.849 37.6898 132.109 37.2998 132.519 37.2198C134.869 36.7498 137.449 36.2998 140.419 35.8298C140.829 35.7698 141.209 36.0398 141.279 36.4498C141.339 36.8598 141.069 37.2398 140.659 37.3098C137.719 37.7698 135.149 38.2298 132.819 38.6898C132.769 38.6998 132.719 38.6998 132.669 38.6998H132.659ZM148.429 36.1398C148.059 36.1398 147.739 35.8698 147.689 35.4998C147.629 35.0898 147.919 34.7098 148.329 34.6498L148.619 34.6098C151.169 34.2398 153.709 33.8798 156.219 33.4898C156.619 33.4298 157.009 33.7098 157.079 34.1198C157.139 34.5298 156.859 34.9098 156.459 34.9798C153.949 35.3698 151.399 35.7398 148.839 36.1098L148.549 36.1498C148.549 36.1498 148.479 36.1498 148.439 36.1498L148.429 36.1398ZM164.199 33.5898C163.849 33.5898 163.539 33.3398 163.469 32.9898C163.389 32.5798 163.649 32.1898 164.059 32.1098C164.779 31.9698 165.489 31.8198 166.199 31.6598C168.019 31.2598 169.889 30.7798 171.749 30.2398C172.149 30.1198 172.559 30.3498 172.679 30.7498C172.799 31.1498 172.569 31.5598 172.169 31.6798C170.269 32.2298 168.369 32.7198 166.519 33.1198C165.799 33.2798 165.079 33.4298 164.349 33.5698C164.299 33.5698 164.249 33.5798 164.199 33.5798V33.5898ZM179.529 29.1698C179.229 29.1698 178.939 28.9798 178.829 28.6798C178.679 28.2898 178.879 27.8598 179.269 27.7098C181.619 26.8198 184.019 25.8298 186.609 24.6798C186.989 24.5098 187.429 24.6798 187.599 25.0598C187.769 25.4398 187.599 25.8798 187.219 26.0498C184.599 27.2098 182.169 28.2098 179.799 29.1098C179.709 29.1398 179.619 29.1598 179.539 29.1598L179.529 29.1698ZM318.819 27.1198C318.629 27.1198 318.429 27.0398 318.279 26.8998C316.449 25.0298 314.489 23.2298 312.469 21.5298C312.149 21.2598 312.109 20.7898 312.379 20.4698C312.649 20.1498 313.119 20.1098 313.439 20.3798C315.499 22.0998 317.489 23.9398 319.359 25.8398C319.649 26.1398 319.649 26.6098 319.359 26.8998C319.209 27.0398 319.019 27.1098 318.829 27.1098L318.819 27.1198ZM194.149 22.7398C193.869 22.7398 193.609 22.5898 193.479 22.3198C193.299 21.9498 193.449 21.4998 193.819 21.3198C196.209 20.1498 198.579 18.9598 200.949 17.7498C201.319 17.5598 201.769 17.7098 201.959 18.0798C202.149 18.4498 201.999 18.8998 201.629 19.0898C199.249 20.2998 196.869 21.4998 194.479 22.6698C194.369 22.7198 194.259 22.7498 194.149 22.7498V22.7398ZM306.589 16.8798C306.439 16.8798 306.299 16.8398 306.169 16.7498C304.009 15.2698 301.739 13.8598 299.439 12.5798C299.079 12.3798 298.949 11.9198 299.149 11.5598C299.349 11.1998 299.809 11.0698 300.169 11.2698C302.509 12.5798 304.809 13.9998 307.009 15.5098C307.349 15.7398 307.439 16.2098 307.199 16.5498C307.049 16.7598 306.819 16.8798 306.579 16.8798H306.589ZM208.419 15.5498C208.139 15.5498 207.879 15.3998 207.749 15.1398C207.559 14.7698 207.709 14.3198 208.079 14.1298C210.859 12.7398 213.139 11.6198 215.269 10.6198C215.649 10.4398 216.089 10.6098 216.269 10.9798C216.449 11.3598 216.289 11.7998 215.909 11.9798C213.789 12.9798 211.509 14.0898 208.749 15.4798C208.639 15.5298 208.529 15.5598 208.409 15.5598L208.419 15.5498ZM292.669 9.09982C292.569 9.09982 292.459 9.07982 292.369 9.03982C289.969 7.96982 287.489 6.99982 284.999 6.14982C284.609 6.01982 284.399 5.58982 284.529 5.19982C284.659 4.80982 285.089 4.59982 285.479 4.72982C288.009 5.58982 290.529 6.57982 292.979 7.66982C293.359 7.83982 293.529 8.27982 293.359 8.65982C293.239 8.93982 292.959 9.10982 292.669 9.10982V9.09982ZM222.889 8.79982C222.599 8.79982 222.319 8.62982 222.199 8.33982C222.039 7.95982 222.219 7.51982 222.599 7.35982C225.219 6.26982 227.679 5.33982 230.109 4.50982C230.499 4.37982 230.929 4.58982 231.059 4.97982C231.189 5.36982 230.979 5.79982 230.589 5.92982C228.189 6.73982 225.759 7.65982 223.169 8.73982C223.079 8.77982 222.979 8.79982 222.879 8.79982H222.889ZM277.569 3.95982C277.509 3.95982 277.449 3.95982 277.389 3.93982C274.829 3.31982 272.219 2.79982 269.619 2.41982C269.209 2.35982 268.929 1.97982 268.989 1.56982C269.049 1.15982 269.439 0.879822 269.839 0.939822C272.479 1.32982 275.139 1.85982 277.739 2.48982C278.139 2.58982 278.389 2.98982 278.289 3.39982C278.209 3.73982 277.899 3.96982 277.559 3.96982L277.569 3.95982ZM238.009 3.72982C237.669 3.72982 237.369 3.49982 237.279 3.15982C237.179 2.75982 237.429 2.34982 237.829 2.24982C240.419 1.61982 243.079 1.10982 245.749 0.749822C246.159 0.699822 246.539 0.979822 246.599 1.38982C246.659 1.79982 246.369 2.17982 245.959 2.23982C243.339 2.59982 240.729 3.09982 238.189 3.70982C238.129 3.71982 238.069 3.72982 238.009 3.72982ZM261.789 1.60982C261.789 1.60982 261.759 1.60982 261.749 1.60982C259.119 1.45982 256.469 1.43982 253.839 1.53982C253.469 1.57982 253.079 1.22982 253.059 0.819822C253.039 0.409822 253.369 0.0598222 253.779 0.0398222C256.449 -0.0601778 259.149 -0.0401778 261.829 0.109822C262.239 0.129822 262.559 0.489822 262.539 0.899822C262.519 1.29982 262.189 1.60982 261.789 1.60982Z" fill="#016ADF"/>
<path d="M406.367 105.29C406.367 105.29 406.327 105.29 406.307 105.29C405.897 105.26 405.587 104.9 405.617 104.49C405.717 103.22 405.687 101.93 405.537 100.64C405.487 100.23 405.787 99.8596 406.197 99.8096C406.607 99.7596 406.977 100.06 407.027 100.47C407.187 101.85 407.217 103.24 407.117 104.6C407.087 104.99 406.757 105.29 406.367 105.29Z" fill="#3A2F26"/>
</g>
<defs>
<clipPath id="clip0_1770_2">
<rect width="459.08" height="465.85" fill="white"/>
</clipPath>
</defs>
</svg>
